<svg width="30" height="30" viewBox="0 0 30 30" fill="none" xmlns="http://www.w3.org/2000/svg">
<path d="M16.25 12.5H3.75C3.0625 12.5 2.5 13.0625 2.5 13.75C2.5 14.4375 3.0625 15 3.75 15H16.25C16.9375 15 17.5 14.4375 17.5 13.75C17.5 13.0625 16.9375 12.5 16.25 12.5ZM16.25 7.50003H3.75C3.0625 7.50003 2.5 8.06253 2.5 8.75003C2.5 9.43753 3.0625 10 3.75 10H16.25C16.9375 10 17.5 9.43753 17.5 8.75003C17.5 8.06253 16.9375 7.50003 16.25 7.50003ZM22.5 17.5V13.75C22.5 13.0625 21.9375 12.5 21.25 12.5C20.5625 12.5 20 13.0625 20 13.75V17.5H16.25C15.5625 17.5 15 18.0625 15 18.75C15 19.4375 15.5625 20 16.25 20H20V23.75C20 24.4375 20.5625 25 21.25 25C21.9375 25 22.5 24.4375 22.5 23.75V20H26.25C26.9375 20 27.5 19.4375 27.5 18.75C27.5 18.0625 26.9375 17.5 26.25 17.5H22.5ZM3.75 20H11.25C11.9375 20 12.5 19.4375 12.5 18.75C12.5 18.0625 11.9375 17.5 11.25 17.5H3.75C3.0625 17.5 2.5 18.0625 2.5 18.75C2.5 19.4375 3.0625 20 3.75 20Z" fill="#656370"/>
</svg>
