<svg width="19" height="19" viewBox="0 0 19 19" fill="none" xmlns="http://www.w3.org/2000/svg">
<circle cx="9" cy="9" r="7" fill="#907FF5"/>
<path d="M5.8109 9.34972C5.79129 8.09375 5.78148 7.46576 5.92576 7.04922C6.32286 5.90281 7.48574 5.20699 8.68368 5.39899C9.11895 5.46875 9.6677 5.77425 10.7652 6.38525C11.8627 6.99625 12.4115 7.30175 12.7001 7.63497C13.4943 8.55207 13.5155 9.90706 12.7503 10.8485C12.4722 11.1906 11.9333 11.5131 10.8554 12.158C9.77747 12.803 9.23852 13.1255 8.80565 13.2088C7.61428 13.4381 6.43024 12.779 5.99754 11.6455C5.84032 11.2337 5.83051 10.6057 5.8109 9.34972Z" fill="#E5E0FF"/>
</svg>
