<svg width="24" height="24" viewBox="0 0 24 24" fill="none" xmlns="http://www.w3.org/2000/svg">
<path d="M16.5815 3C15.6435 3.01459 14.726 3.27643 13.9215 3.75909C13.1171 4.24174 12.4543 4.92811 12 5.74889C11.5457 4.92811 10.8829 4.24174 10.0785 3.75909C9.27405 3.27643 8.35651 3.01459 7.41852 3C5.92324 3.06497 4.51444 3.71909 3.49991 4.81946C2.48539 5.91983 1.9476 7.37701 2.00403 8.87264C2.00403 12.6603 5.99076 16.7969 9.33441 19.6016C10.081 20.229 11.0249 20.5729 12 20.5729C12.9751 20.5729 13.919 20.229 14.6656 19.6016C18.0092 16.7969 21.996 12.6603 21.996 8.87264C22.0524 7.37701 21.5146 5.91983 20.5001 4.81946C19.4856 3.71909 18.0768 3.06497 16.5815 3Z" fill="#907FF5"/>
</svg>
