<svg width="26" height="24" viewBox="0 0 26 24" fill="none" xmlns="http://www.w3.org/2000/svg">
<path d="M18.4999 0.916992C17.3739 0.934507 16.2724 1.24885 15.3067 1.82826C14.341 2.40768 13.5453 3.23166 13 4.21699C12.4546 3.23166 11.6589 2.40768 10.6932 1.82826C9.72749 1.24885 8.626 0.934507 7.49996 0.916992C5.7049 0.994983 4.01366 1.78025 2.79574 3.10122C1.57782 4.4222 0.932208 6.17152 0.999958 7.96699C0.999958 14.742 11.956 22.567 12.422 22.899L13 23.308L13.578 22.899C14.044 22.569 24.9999 14.742 24.9999 7.96699C25.0677 6.17152 24.4221 4.4222 23.2042 3.10122C21.9862 1.78025 20.295 0.994983 18.4999 0.916992V0.916992Z" fill="#907FF5"/>
</svg>
