<svg width="20" height="20" viewBox="0 0 20 20" fill="none" xmlns="http://www.w3.org/2000/svg">
<g clip-path="url(#clip0_239_147)">
<path d="M14.5835 1.59747C13.6451 1.61207 12.7272 1.87402 11.9224 2.35687C11.1177 2.83971 10.4546 3.52636 10.0001 4.34747C9.54565 3.52636 8.88257 2.83971 8.07782 2.35687C7.27307 1.87402 6.35517 1.61207 5.41679 1.59747C3.92091 1.66247 2.51155 2.31685 1.49661 3.41767C0.481677 4.51848 -0.0563307 5.97624 0.000128 7.47247C0.000128 11.2616 3.98846 15.4 7.33346 18.2058C8.0803 18.8334 9.02458 19.1775 10.0001 19.1775C10.9757 19.1775 11.9199 18.8334 12.6668 18.2058C16.0118 15.4 20.0001 11.2616 20.0001 7.47247C20.0566 5.97624 19.5186 4.51848 18.5036 3.41767C17.4887 2.31685 16.0793 1.66247 14.5835 1.59747Z" fill="#907FF5"/>
</g>
<defs>
<clipPath id="clip0_239_147">
<rect width="20" height="20" fill="white"/>
</clipPath>
</defs>
</svg>
