<svg width="22" height="22" viewBox="0 0 22 22" fill="none" xmlns="http://www.w3.org/2000/svg">
<mask id="mask0_177_202" style="mask-type:alpha" maskUnits="userSpaceOnUse" x="0" y="0" width="22" height="22">
<rect width="22" height="22" fill="#C4C4C4"/>
</mask>
<g mask="url(#mask0_177_202)">
<path d="M3.16358 11.1205C3.0993 7.00458 3.06716 4.94661 3.83731 3.70171C4.6911 2.32159 6.16161 1.4417 7.78139 1.34172C9.24247 1.25154 11.0408 2.25269 14.6374 4.25499V4.25499C18.2341 6.25729 20.0324 7.25844 20.7254 8.54786C21.4937 9.97732 21.5205 11.6908 20.7972 13.1435C20.1447 14.454 18.3786 15.5108 14.8462 17.6244V17.6244C11.3138 19.738 9.54767 20.7948 8.08448 20.7503C6.46237 20.701 4.9651 19.8674 4.06863 18.5146C3.25999 17.2944 3.22785 15.2364 3.16358 11.1205V11.1205Z" fill="#E5E0FF"/>
</g>
</svg>
