<svg width="30" height="30" viewBox="0 0 30 30" fill="none" xmlns="http://www.w3.org/2000/svg">
<path d="M0 2.14286C0 0.95939 0.95939 0 2.14286 0H27.8571C29.0406 0 30 0.95939 30 2.14286C30 3.32632 29.0406 4.28571 27.8571 4.28571H2.14286C0.959389 4.28571 0 3.32632 0 2.14286Z" fill="#E5E0FF"/>
<path d="M4.28577 15C4.28577 13.8165 5.24516 12.8571 6.42862 12.8571H27.8572C29.0407 12.8571 30.0001 13.8165 30.0001 15C30.0001 16.1834 29.0407 17.1428 27.8572 17.1428H6.42862C5.24515 17.1428 4.28577 16.1834 4.28577 15Z" fill="#E5E0FF"/>
<path d="M0 27.8572C0 26.6737 0.95939 25.7143 2.14286 25.7143H27.8571C29.0406 25.7143 30 26.6737 30 27.8572C30 29.0406 29.0406 30 27.8571 30H2.14286C0.959389 30 0 29.0406 0 27.8572Z" fill="#E5E0FF"/>
</svg>
