<svg width="30" height="30" viewBox="0 0 30 30" fill="none" xmlns="http://www.w3.org/2000/svg">
<path d="M15 17.5C17.075 17.5 18.75 15.825 18.75 13.75V6.25C18.75 4.175 17.075 2.5 15 2.5C12.925 2.5 11.25 4.175 11.25 6.25V13.75C11.25 15.825 12.925 17.5 15 17.5ZM22.3875 13.75C21.775 13.75 21.2625 14.2 21.1625 14.8125C20.65 17.75 18.0875 20 15 20C11.9125 20 9.35001 17.75 8.83751 14.8125C8.73751 14.2 8.22501 13.75 7.61251 13.75C6.85001 13.75 6.25001 14.425 6.36251 15.175C6.97501 18.925 9.97501 21.8625 13.75 22.4V25C13.75 25.6875 14.3125 26.25 15 26.25C15.6875 26.25 16.25 25.6875 16.25 25V22.4C20.025 21.8625 23.025 18.925 23.6375 15.175C23.7625 14.425 23.15 13.75 22.3875 13.75Z" fill="#E5E0FF"/>
</svg>
