<svg width="21" height="20" viewBox="0 0 21 20" fill="none" xmlns="http://www.w3.org/2000/svg">
<path d="M10.8677 11.6666C12.2511 11.6666 13.3677 10.55 13.3677 9.16663V4.16663C13.3677 2.78329 12.2511 1.66663 10.8677 1.66663C9.48441 1.66663 8.36775 2.78329 8.36775 4.16663V9.16663C8.36775 10.55 9.48441 11.6666 10.8677 11.6666ZM15.7927 9.16663C15.3844 9.16663 15.0427 9.46663 14.9761 9.87496C14.6344 11.8333 12.9261 13.3333 10.8677 13.3333C8.80941 13.3333 7.10108 11.8333 6.75941 9.87496C6.69275 9.46663 6.35108 9.16663 5.94275 9.16663C5.43441 9.16663 5.03441 9.61663 5.10941 10.1166C5.51775 12.6166 7.51775 14.575 10.0344 14.9333V16.6666C10.0344 17.125 10.4094 17.5 10.8677 17.5C11.3261 17.5 11.7011 17.125 11.7011 16.6666V14.9333C14.2177 14.575 16.2177 12.6166 16.6261 10.1166C16.7094 9.61663 16.3011 9.16663 15.7927 9.16663Z" fill="#E5E0FF"/>
</svg>
