<svg width="30" height="30" viewBox="0 0 30 30" fill="none" xmlns="http://www.w3.org/2000/svg">
<rect width="30" height="30" rx="5" fill="#907FF5"/>
<path d="M9.97425 13.3895C9.93815 11.0777 9.9201 9.92175 10.4026 9.25037C10.8055 8.68983 11.4222 8.32081 12.1066 8.23077C12.9264 8.12293 13.9364 8.68525 15.9566 9.8099L18.9076 11.4528C20.9278 12.5774 21.9378 13.1398 22.278 13.8933C22.562 14.5225 22.5732 15.2411 22.309 15.8788C21.9925 16.6427 21.0005 17.2362 19.0165 18.4234L16.1182 20.1576C14.1341 21.3448 13.1421 21.9384 12.3194 21.8562C11.6325 21.7876 11.0046 21.438 10.5844 20.8903C10.0811 20.2343 10.0631 19.0784 10.027 16.7666L9.97425 13.3895Z" fill="#E5E0FF"/>
</svg>
