<svg width="94" height="94" viewBox="0 0 94 94" fill="none" xmlns="http://www.w3.org/2000/svg">
<g filter="url(#filter0_d_101_101)">
<rect x="32" y="24" width="30" height="30" rx="5" fill="#907FF5"/>
<path d="M41.9743 37.3895C41.9382 35.0777 41.9201 33.9218 42.4026 33.2504C42.8055 32.6899 43.4222 32.3208 44.1066 32.2308C44.9264 32.123 45.9364 32.6853 47.9566 33.8099L50.9076 35.4528C52.9278 36.5775 53.9378 37.1398 54.278 37.8934C54.562 38.5225 54.5732 39.2411 54.309 39.8789C53.9925 40.6427 53.0005 41.2363 51.0165 42.4235L48.1182 44.1577C46.1341 45.3449 45.1421 45.9385 44.3194 45.8563C43.6325 45.7876 43.0046 45.4381 42.5844 44.8904C42.0811 44.2344 42.0631 43.0785 42.027 40.7666L41.9743 37.3895Z" fill="#E5E0FF"/>
</g>
<defs>
<filter id="filter0_d_101_101" x="0" y="0" width="94" height="94" filterUnits="userSpaceOnUse" color-interpolation-filters="sRGB">
<feFlood flood-opacity="0" result="BackgroundImageFix"/>
<feColorMatrix in="SourceAlpha" type="matrix" values="0 0 0 0 0 0 0 0 0 0 0 0 0 0 0 0 0 0 127 0" result="hardAlpha"/>
<feOffset dy="8"/>
<feGaussianBlur stdDeviation="16"/>
<feComposite in2="hardAlpha" operator="out"/>
<feColorMatrix type="matrix" values="0 0 0 0 0.563712 0 0 0 0 0.4992 0 0 0 0 0.96 0 0 0 0.5 0"/>
<feBlend mode="normal" in2="BackgroundImageFix" result="effect1_dropShadow_101_101"/>
<feBlend mode="normal" in="SourceGraphic" in2="effect1_dropShadow_101_101" result="shape"/>
</filter>
</defs>
</svg>
