<svg width="9" height="9" viewBox="0 0 9 9" fill="none" xmlns="http://www.w3.org/2000/svg">
<path d="M0.810901 4.34972C0.791287 3.09375 0.78148 2.46576 0.925762 2.04922C1.32286 0.902815 2.48574 0.206994 3.68368 0.398988C4.11895 0.468748 4.6677 0.774249 5.76522 1.38525V1.38525C6.86273 1.99625 7.41149 2.30175 7.70008 2.63497C8.49435 3.55207 8.51551 4.90706 7.75026 5.84852C7.47222 6.19059 6.93327 6.51308 5.85537 7.15805V7.15805C4.77747 7.80302 4.23852 8.12551 3.80565 8.20883C2.61428 8.43813 1.43024 7.77896 0.997539 6.64551C0.840322 6.23368 0.830515 5.6057 0.810901 4.34972V4.34972Z" fill="#E5E0FF"/>
</svg>
