<svg width="30" height="30" viewBox="0 0 30 30" fill="none" xmlns="http://www.w3.org/2000/svg">
<path d="M15 6.25007V2.76257C15 2.20007 14.325 1.92507 13.9375 2.32507L9.18749 7.06257C8.93749 7.31257 8.93749 7.70007 9.18749 7.95007L13.925 12.6876C14.325 13.0751 15 12.8001 15 12.2376V8.75007C19.6625 8.75007 23.35 13.0251 22.325 17.8626C21.7375 20.7001 19.4375 22.9876 16.6125 23.5751C12.15 24.5126 8.17499 21.4501 7.57499 17.3126C7.48749 16.7126 6.96249 16.2501 6.34999 16.2501C5.59999 16.2501 4.99999 16.9126 5.09999 17.6626C5.87499 23.1501 11.1 27.2126 17.0125 26.0626C20.9125 25.3001 24.05 22.1626 24.8125 18.2626C26.05 11.8501 21.175 6.25007 15 6.25007Z" fill="#656370"/>
</svg>
