<svg width="20" height="20" viewBox="0 0 20 20" fill="none" xmlns="http://www.w3.org/2000/svg">
<path d="M12.9167 11.6667H12.2583L12.025 11.4417C13.025 10.275 13.5417 8.68337 13.2583 6.9917C12.8667 4.67503 10.9333 2.82503 8.6 2.5417C5.075 2.10837 2.10834 5.07503 2.54167 8.60003C2.825 10.9334 4.675 12.8667 6.99167 13.2584C8.68334 13.5417 10.275 13.025 11.4417 12.025L11.6667 12.2584V12.9167L15.2083 16.4584C15.55 16.8 16.1083 16.8 16.45 16.4584C16.7917 16.1167 16.7917 15.5584 16.45 15.2167L12.9167 11.6667ZM7.91667 11.6667C5.84167 11.6667 4.16667 9.9917 4.16667 7.9167C4.16667 5.8417 5.84167 4.1667 7.91667 4.1667C9.99167 4.1667 11.6667 5.8417 11.6667 7.9167C11.6667 9.9917 9.99167 11.6667 7.91667 11.6667Z" fill="#E5E0FF"/>
</svg>
